<?xml version="1.0" encoding="UTF-8"?><svg id="Layer_1" xmlns="http://www.w3.org/2000/svg" viewBox="0 0 704.82 746.82"><defs><style>.cls-1{fill:#f7f3e8;}</style></defs><polygon class="cls-1" points="541.07 115.81 159.83 635.92 532.96 109.96 541.07 115.81 541.07 115.81"/><polygon class="cls-1" points="608.62 182.86 91.01 567.5 602.59 174.88 608.62 182.86 608.62 182.86"/><polygon class="cls-1" points="653.4 266.84 45.42 481.82 649.99 257.44 653.4 266.84 653.4 266.84"/><polygon class="cls-1" points="671.44 360.29 27.1 386.52 670.96 350.31 671.44 360.29 671.44 360.29"/><polygon class="cls-1" points="661.13 454.91 37.69 290.05 663.61 445.23 661.13 454.91 661.13 454.91"/><polygon class="cls-1" points="623.39 542.29 76.24 200.99 628.62 533.76 623.39 542.29 623.39 542.29"/><polygon class="cls-1" points="561.58 614.66 139.33 127.24 569.08 608.05 561.58 614.66 561.58 614.66"/><polygon class="cls-1" points="481.17 665.59 221.36 75.37 490.3 661.49 481.17 665.59 481.17 665.59"/><polygon class="cls-1" points="389.33 690.57 315.03 49.99 399.25 689.34 389.33 690.57 389.33 690.57"/><polygon class="cls-1" points="294.21 687.36 412.02 53.34 304.05 689.11 294.21 687.36 294.21 687.36"/><polygon class="cls-1" points="204.25 656.25 503.71 85.12 213.15 660.83 204.25 656.25 204.25 656.25"/><polygon class="cls-1" points="127.47 600.02 581.96 142.53 134.62 607.01 127.47 600.02 127.47 600.02"/><polygon class="cls-1" points="70.67 523.65 639.82 220.45 75.44 532.44 70.67 523.65 70.67 523.65"/><polygon class="cls-1" points="38.9 433.93 672.14 311.96 40.87 443.73 38.9 433.93 38.9 433.93"/><polygon class="cls-1" points="34.99 338.83 676.04 408.93 33.98 348.78 34.99 338.83 34.99 338.83"/><polygon class="cls-1" points="59.29 246.8 651.2 502.74 55.39 256.01 59.29 246.8 59.29 246.8"/><polygon class="cls-1" points="109.63 166.03 599.8 585.07 103.19 173.68 109.63 166.03 109.63 166.03"/><polygon class="cls-1" points="181.54 103.68 526.42 648.58 173.13 109.09 181.54 103.68 181.54 103.68"/><polygon class="cls-1" points="268.64 65.3 437.58 687.65 259.01 67.99 268.64 65.3 268.64 65.3"/><polygon class="cls-1" points="363.18 54.29 341.18 698.79 353.18 54.03 363.18 54.29 363.18 54.29"/><polygon class="cls-1" points="456.76 71.64 245.77 681.02 447.28 68.44 456.76 71.64 456.76 71.64"/></svg>