<?xml version="1.0" encoding="UTF-8"?><svg id="Layer_1" xmlns="http://www.w3.org/2000/svg" viewBox="0 0 1889.72 1073.87"><defs><style>.cls-1{fill:none;stroke:#000;stroke-miterlimit:10;}</style></defs><path class="cls-1" d="M970.72,912.12c-70.85-53.72-216.21-183.5-301.24-138.53-85.03,44.98-219.09,60.7-336.89,45.43-117.81-15.28-218.11-58.96-279.59-113.3-75.52-66.74-79.33-167.36,47.83-207.82,101.89-32.42,251.35-14.72,334.31-59.35,62.54-33.65,56.45-88.09,28.12-132.46-28.33-44.37-74.86-86.59-80.83-133.23-8.47-66.16,76.98-132.55,198.01-153.83,121.03-21.29,266.68,4.46,337.49,59.65,58.44,45.55,77.46,111.23,174.44,132.74,76.46,16.96,164.64-3.73,230.27-30.22,65.63-26.49,124.44-59.93,203.27-73.67,113.86-19.84,247.61,10.21,311.06,63.12,63.44,52.91,60.58,123.1,7.35,178.96-53.23,55.86-151.5,97.94-261.23,123.28-58.88,13.6-133.67,31.71-130.1,65.1,3.12,29.18,65.21,44.76,115.63,57.79,132.9,34.36,243.92,93.86,292.17,166.72,48.25,72.86,28.54,158.57-62.8,219.31-91.33,60.74-255.45,91.62-397.26,68.76-181.89-29.31-310.62-58.93-430.01-138.46"/></svg>