<?xml version="1.0" encoding="UTF-8"?><svg id="Layer_1" xmlns="http://www.w3.org/2000/svg" viewBox="0 0 577.04 640.5"><defs><style>.cls-1{font-family:BodoniSvtyTwoITCTT-Book, 'Bodoni 72';}.cls-1,.cls-2{font-size:500px;}.cls-2{font-family:BodoniSvtyTwoOSITCTT-Book, 'Bodoni 72 Oldstyle';}.cls-3{fill:none;stroke:#000;stroke-miterlimit:10;}</style></defs><text class="cls-1" transform="translate(52.39 419.01)"><tspan x="0" y="0">M</tspan></text><text class="cls-2" transform="translate(180.56 542.11)"><tspan x="0" y="0">G</tspan></text><path class="cls-3" d="M228.87,376.85c16.12,28.88,8.94,67.82-14.22,91.43-23.16,23.61-59.67,31.87-91.76,23.85-32.09-8.02-59.41-30.95-76.15-59.48-20.57-35.04-21.61-87.86,13.03-109.1,27.75-17.02,68.46-7.73,91.06-31.16,17.03-17.66,15.38-46.24,7.66-69.54-7.72-23.29-20.39-45.46-22.02-69.94-2.31-34.73,20.97-69.58,53.93-80.76,32.96-11.17,72.64,2.34,91.92,31.32,15.92,23.92,21.1,58.39,47.51,69.68,20.83,8.9,44.84-1.96,62.72-15.87s33.89-31.46,55.36-38.68c31.01-10.42,67.44,5.36,84.72,33.14s16.5,64.62,2,93.95c-14.5,29.33-41.26,51.42-71.15,64.72-16.04,7.14-36.41,16.65-35.43,34.18,.85,15.32,17.76,23.5,31.49,30.34,36.2,18.04,66.44,49.27,79.58,87.52,13.14,38.25,7.77,83.25-17.1,115.13s-69.58,48.1-108.2,36.1c-49.54-15.39-77.78-68.72-124.27-91.72"/></svg>