<?xml version="1.0" encoding="utf-8"?>
<!-- Generator: Adobe Illustrator 26.5.0, SVG Export Plug-In . SVG Version: 6.00 Build 0)  -->
<svg version="1.1" id="Layer_1" xmlns="http://www.w3.org/2000/svg" xmlns:xlink="http://www.w3.org/1999/xlink" x="0px" y="0px"
	 viewBox="0 0 7383.1 4420" style="enable-background:new 0 0 7383.1 4420;" xml:space="preserve">
<style type="text/css">
	.st0{fill:#FFA200;}
	.st1{fill:none;}
	.st2{fill:#1D1D1B;}
	.st3{opacity:0.5;fill:#010202;enable-background:new    ;}
	.st4{font-family:'Italiana-Regular';}
	.st5{font-size:372.089px;}
	.st6{fill:#010202;}
</style>
<image style="overflow:visible;enable-background:new    ;" width="509" height="543" xlink:href="98CCBC5C0BFB6EF3.png"  transform="matrix(2.7652 0 0 2.7652 458.2584 283.19)">
</image>
<path class="st0" d="M682.2,3002.8c10,0,10-15.6,0-15.6S672.2,3002.8,682.2,3002.8L682.2,3002.8z"/>
<ellipse class="st1" cx="1109.1" cy="365" rx="555" ry="365"/>
<path class="st2" d="M271.3,935.5c94.8-47.3,190.5-93.3,286.9-137.2c49.3-22.5,98.8-44.3,148.6-65.6c24.2-10.4,48.1-21.5,72.4-31.7
	c22.5-9.4,46-17.4,68.1-27.5c23.6-10.8,48.5-19.7,72.8-29.4c25-10.1,50.2-20,75.3-29.7c51-19.8,102.1-39.8,153.5-58.7
	c49.9-18.4,99.4-37.7,149.6-55.4s100.2-35,150.5-51.8c101.5-34,203.6-66.3,306.2-96.8c102.9-30.6,206.5-61.6,312.3-80.4
	s213.7-33.1,320.5-17.7c37.6,5.4,84.8,11,111,41.9c18.8,22.2,13.9,46.4,1.8,70.6c-10.6,21.1-23.5,41-38.4,59.2
	c-60.7,74.4-146.5,125.2-232.3,165.6c-91.9,43.4-187.1,80.2-280.4,120.7c-24.8,10.8-49.6,21.7-74.3,32.7c-9.1,4.1-1.2,17.5,7.9,13.5
	c99.2-44.2,199.5-85.4,299.2-128.5c89.7-38.7,177.8-83.5,250.2-150.3c35.1-32.3,65.5-70.1,85.6-113.6c9.5-20.5,13.8-43.2,3.1-64.2
	c-8.6-16.9-23.2-30-39.8-38.9c-37.5-20-84.7-24.5-126.3-28.2c-54.7-4.9-109.7-2.8-164.2,3.1c-109.5,11.9-217.5,35.4-323.4,65.5
	s-212.2,62.2-317.4,96c-210.8,67.9-418.7,144-624.2,226.3c-23.9,9.6-47.7,19.9-71.9,28.3c-10.3,3.6-20.9,8.4-30.9,12.7
	c-13,5.7-26.4,10.1-39.3,16c-49.4,22.4-99.6,43.3-149.3,65.2c-50.7,22.3-100.7,46.1-151,69.1c-25.3,11.5-50.1,23.7-75.4,35.2
	c-11.3,5.1-21.8,11.3-32.8,16.8c-12.2,6.1-25,11-37.2,17c-24.9,12.3-49.8,24.4-74.7,36.8C254.4,926.6,262.3,940,271.3,935.5
	L271.3,935.5L271.3,935.5z"/>
<path class="st2" d="M698.8,1249.5c-159,49.6-315.9,116.7-437.7,211.7c-43.5,33.9-104.2,86.2-91.1,138.7
	c12.2,48.9,80.4,69.9,137.2,70.9c96.9,1.8,193.8-3.2,289.8-13.1c97-10.1,191.8-29.1,288.7-39.6c204.7-22.1,409.7-42.9,615.4-58.3
	c806.7-60.7,1630.3-29.4,2415.8,132.4c191,39.3,380.2,84.3,565.7,137c181.2,51.4,357,110.8,532.8,172.3
	c346.8,121.4,681.5,269.6,1003.1,426.8c307.9,150.6,605.9,317.9,866.1,516.2c129.9,99,250.2,206.4,349,325.3
	c98.4,118.3,179.1,248,250.1,377.5c76.1,138.7,130.2,281.4,182.9,426.2c51.9,142.9,103.6,285.7,151.7,429.4
	c101.6,303.5,200.5,607.9,288.9,913.9c21.5,74.2,41.5,148.6,59.5,223.3c2.5,10.5,23.2,6,20.6-4.4
	c-73.2-303.3-174.1-603.1-271.1-902.2c-47.4-146.3-98.5-291.9-147.2-437.9c-47-141.2-97.1-283.6-154.3-422.6
	c-56.4-137-128.2-269.8-210.5-398.6c-74.4-116.4-157.5-228.4-260.6-331.1c-212.4-211.6-480.4-386.3-758.7-543.1
	c-301.5-169.9-623.5-315.9-950-454.5c-326.3-138.5-671-263-1024.2-354.5c-370.5-96-748.6-173.8-1135.5-218.5
	c-388.3-44.9-782.6-65-1175.2-58c-398.5,7.2-794.2,41.6-1188.7,84c-96.8,10.4-191.5,28.4-288.1,39.5
	c-102.1,11.7-205.2,17.7-308.4,16.1c-50-0.8-120.4-15.8-124.8-64c-3.1-34.5,32.4-70.6,59.7-95.4c58.8-53.5,135.2-96.7,211.4-134.1
	c77.1-37.8,158.9-69,243.5-95.4C717.1,1261.6,711.6,1245.6,698.8,1249.5L698.8,1249.5L698.8,1249.5z"/>
<text transform="matrix(1 0 0 1 2647.4348 1157.845)" class="st3 st4 st5">ØLSTED</text>
<text transform="matrix(1 0 0 1 2527.5061 936.4377)" class="st6 st4 st5">MARIE</text>
<text transform="matrix(1 0 0 1 2742.7629 1333.1272)" class="st6 st4 st5">GOLTERMANN</text>
<text transform="matrix(1 0 0 1 2527.5061 936.4377)" class="st6 st4 st5">MARIE</text>
</svg>
