<?xml version="1.0" encoding="UTF-8"?><svg id="Layer_1" xmlns="http://www.w3.org/2000/svg" viewBox="0 0 218.55 215.92"><defs><style>.cls-1{fill:none;stroke:#000;stroke-miterlimit:10;}</style></defs><path class="cls-1" d="M108.44,176.83c-6.58-9.61-20.08-32.84-27.97-24.79s-20.34,10.86-31.28,8.13-20.25-10.55-25.96-20.28c-7.01-11.94-7.37-29.95,4.44-37.19,9.46-5.8,23.34-2.63,31.04-10.62,5.81-6.02,5.24-15.77,2.61-23.71s-6.95-15.5-7.51-23.85c-.79-11.84,7.15-23.72,18.39-27.53,11.24-3.81,24.76,.8,31.34,10.68,5.43,8.15,7.19,19.91,16.2,23.76,7.1,3.04,15.29-.67,21.38-5.41,6.09-4.74,11.55-10.73,18.87-13.19,10.57-3.55,22.99,1.83,28.88,11.3s5.63,22.03,.68,32.03-14.07,17.53-24.26,22.06c-5.47,2.43-12.41,5.68-12.08,11.65,.29,5.22,6.05,8.01,10.74,10.34,12.34,6.15,22.65,16.8,27.13,29.84s2.65,28.38-5.83,39.25c-8.48,10.87-23.72,16.4-36.89,12.31-16.89-5.25-28.84-10.55-39.93-24.78"/><path d="M113.19,113.57h10.39l4.25-16.52h-14.63v-8.5c0-4.25,0-8.5,8.5-8.5h6.14v-13.69c-1.42-.47-6.61-.47-11.8-.47-11.33,0-19.36,7.08-19.36,19.83v11.8h-12.75v16.52h12.75v35.41h16.52v-35.88h0Z"/></svg>